<svg xmlns="http://www.w3.org/2000/svg" width="520.485" height="385.028" viewBox="0 0 520.485 385.028">
	<g id="checked" transform="translate(4.243 -62.865)">
	  <path id="Tracé_64" data-name="Tracé 64" d="M433.139,67.108,201.294,298.953a16,16,0,0,1-22.63,0l-99.8-99.8L0,278.011,150.547,428.56a55.764,55.764,0,0,0,39.431,16.333h0a55.766,55.766,0,0,0,39.43-16.333L512,145.968Z" fill="#a5eb78" stroke="#5cb962" stroke-width="6"/>
	  <g id="Groupe_99" data-name="Groupe 99" opacity="0.1">
		<path id="Tracé_65" data-name="Tracé 65" d="M485.921,119.888,187.59,418.22a61.045,61.045,0,0,1-29.847,16.391,55.755,55.755,0,0,0,32.235,10.28h0a55.766,55.766,0,0,0,39.43-16.333L512,145.966Z" stroke="#5cb962" stroke-width="6"/>
	  </g>
	</g>
  </svg>
