<svg xmlns="http://www.w3.org/2000/svg" width="20.424" height="20.424" viewBox="0 0 20.424 20.424">
    <path id="Icon_metro-cross" data-name="Icon metro-cross" d="M22.809,18.336h0l-6.2-6.2,6.2-6.2h0a.64.64,0,0,0,0-.9L19.882,2.115a.64.64,0,0,0-.9,0h0l-6.2,6.2-6.2-6.2h0a.64.64,0,0,0-.9,0L2.757,5.042a.64.64,0,0,0,0,.9h0l6.2,6.2-6.2,6.2h0a.64.64,0,0,0,0,.9l2.927,2.927a.64.64,0,0,0,.9,0h0l6.2-6.2,6.2,6.2h0a.64.64,0,0,0,.9,0l2.927-2.927a.64.64,0,0,0,0-.9Z" transform="translate(-2.571 -1.928)" fill="#2c2c2c"/>
  </svg>
